<svg xmlns="http://www.w3.org/2000/svg" xmlns:xlink="http://www.w3.org/1999/xlink" contentStyleType="text/css" data-diagram-type="SEQUENCE" height="298px" preserveAspectRatio="none" style="width:362px;height:298px;background:#FFFFFF;" version="1.1" viewBox="0 0 362 298" width="362px" zoomAndPan="magnify"><defs/><g><g><title>User</title><rect fill="#000000" fill-opacity="0.00000" height="136.5313" width="8" x="19.9551" y="81.2969"/><line style="stroke:#181818;stroke-width:0.5;stroke-dasharray:5.0,5.0;" x1="23" x2="23" y1="81.2969" y2="217.8281"/></g><g><title>MCP</title><rect fill="#000000" fill-opacity="0.00000" height="136.5313" width="8" x="201.6943" y="81.2969"/><line style="stroke:#181818;stroke-width:0.5;stroke-dasharray:5.0,5.0;" x1="205.5459" x2="205.5459" y1="81.2969" y2="217.8281"/></g><g><title>Tools</title><rect fill="#000000" fill-opacity="0.00000" height="136.5313" width="8" x="327.3394" y="81.2969"/><line style="stroke:#181818;stroke-width:0.5;stroke-dasharray:5.0,5.0;" x1="330.9063" x2="330.9063" y1="81.2969" y2="217.8281"/></g><g class="participant participant-head" data-participant="User"><text fill="#000000" font-family="sans-serif" font-size="14" lengthAdjust="spacing" textLength="31.9102" x="5" y="77.9951">User</text><ellipse cx="23.9551" cy="13.5" fill="#E2E2F0" rx="8" ry="8" style="stroke:#181818;stroke-width:0.5;"/><path d="M23.9551,21.5 L23.9551,48.5 M10.9551,29.5 L36.9551,29.5 M23.9551,48.5 L10.9551,63.5 M23.9551,48.5 L36.9551,63.5" fill="none" style="stroke:#181818;stroke-width:0.5;"/></g><g class="participant participant-tail" data-participant="User"><text fill="#000000" font-family="sans-serif" font-size="14" lengthAdjust="spacing" textLength="31.9102" x="5" y="229.8232">User</text><ellipse cx="23.9551" cy="241.625" fill="#E2E2F0" rx="8" ry="8" style="stroke:#181818;stroke-width:0.5;"/><path d="M23.9551,249.625 L23.9551,276.625 M10.9551,257.625 L36.9551,257.625 M23.9551,276.625 L10.9551,291.625 M23.9551,276.625 L36.9551,291.625" fill="none" style="stroke:#181818;stroke-width:0.5;"/></g><g class="participant participant-head" data-participant="MCP"><rect fill="#E2E2F0" height="30.2969" rx="2.5" ry="2.5" style="stroke:#181818;stroke-width:0.5;" width="44.2969" x="183.5459" y="50"/><text fill="#000000" font-family="sans-serif" font-size="14" lengthAdjust="spacing" textLength="30.2969" x="190.5459" y="69.9951">MCP</text></g><g class="participant participant-tail" data-participant="MCP"><rect fill="#E2E2F0" height="30.2969" rx="2.5" ry="2.5" style="stroke:#181818;stroke-width:0.5;" width="44.2969" x="183.5459" y="216.8281"/><text fill="#000000" font-family="sans-serif" font-size="14" lengthAdjust="spacing" textLength="30.2969" x="190.5459" y="236.8232">MCP</text></g><g class="participant participant-head" data-participant="Tools"><rect fill="#E2E2F0" height="30.2969" rx="2.5" ry="2.5" style="stroke:#181818;stroke-width:0.5;" width="50.8662" x="305.9063" y="50"/><text fill="#000000" font-family="sans-serif" font-size="14" lengthAdjust="spacing" textLength="36.8662" x="312.9063" y="69.9951">Tools</text></g><g class="participant participant-tail" data-participant="Tools"><rect fill="#E2E2F0" height="30.2969" rx="2.5" ry="2.5" style="stroke:#181818;stroke-width:0.5;" width="50.8662" x="305.9063" y="216.8281"/><text fill="#000000" font-family="sans-serif" font-size="14" lengthAdjust="spacing" textLength="36.8662" x="312.9063" y="236.8232">Tools</text></g><g class="message" data-participant-1="User" data-participant-2="MCP"><polygon fill="#181818" points="193.6943,108.4297,203.6943,112.4297,193.6943,116.4297,197.6943,112.4297" style="stroke:#181818;stroke-width:1;"/><line style="stroke:#181818;stroke-width:1;" x1="23.9551" x2="199.6943" y1="112.4297" y2="112.4297"/><text fill="#000000" font-family="sans-serif" font-size="13" lengthAdjust="spacing" textLength="157.7393" x="30.9551" y="107.3638">Request Documentation</text></g><g class="message" data-participant-1="MCP" data-participant-2="Tools"><polygon fill="#181818" points="319.3394,137.5625,329.3394,141.5625,319.3394,145.5625,323.3394,141.5625" style="stroke:#181818;stroke-width:1;"/><line style="stroke:#181818;stroke-width:1;" x1="205.6943" x2="325.3394" y1="141.5625" y2="141.5625"/><text fill="#000000" font-family="sans-serif" font-size="13" lengthAdjust="spacing" textLength="88.6387" x="212.6943" y="136.4966">Analyze Code</text></g><g class="message" data-participant-1="Tools" data-participant-2="MCP"><polygon fill="#181818" points="216.6943,166.6953,206.6943,170.6953,216.6943,174.6953,212.6943,170.6953" style="stroke:#181818;stroke-width:1;"/><line style="stroke:#181818;stroke-width:1;stroke-dasharray:2.0,2.0;" x1="210.6943" x2="330.3394" y1="170.6953" y2="170.6953"/><text fill="#000000" font-family="sans-serif" font-size="13" lengthAdjust="spacing" textLength="101.645" x="222.6943" y="165.6294">Return Analysis</text></g><g class="message" data-participant-1="MCP" data-participant-2="User"><polygon fill="#181818" points="34.9551,195.8281,24.9551,199.8281,34.9551,203.8281,30.9551,199.8281" style="stroke:#181818;stroke-width:1;"/><line style="stroke:#181818;stroke-width:1;stroke-dasharray:2.0,2.0;" x1="28.9551" x2="204.6943" y1="199.8281" y2="199.8281"/><text fill="#000000" font-family="sans-serif" font-size="13" lengthAdjust="spacing" textLength="153.042" x="40.9551" y="194.7622">Provide Documentation</text></g><!--SRC=[LOr12iD0203lli8Fv0DxA9JqMWYXVO1iF0Y9fgjRQ5_VR78eEUhCAEMmWa_d0YkLa2mhQU2z7qxpmsnsWEPXTsauuSYloXvuirmNrg0GKzXGC_OWuLLf_dmPUviOzXrs_pvgqKDnyQFSO7kIS2ZsbedFrty0]--></g></svg>